<svg xmlns="http://www.w3.org/2000/svg" version="1.1" xmlns:xlink="http://www.w3.org/1999/xlink" xmlns:svgjs="http://svgjs.dev/svgjs" width="1000" height="623" viewBox="0 0 1000 623"><g transform="matrix(1,0,0,1,-0.6060606060606233,0.2522267206477409)"><svg viewBox="0 0 396 247" data-background-color="#ffffff" preserveAspectRatio="xMidYMid meet" height="623" width="1000" xmlns="http://www.w3.org/2000/svg" xmlns:xlink="http://www.w3.org/1999/xlink"><g id="tight-bounds" transform="matrix(1,0,0,1,0.2400000000000091,-0.09999999999999432)"><svg viewBox="0 0 395.52 247.2" height="247.2" width="395.52"><g><svg></svg></g><g><svg viewBox="0 0 395.52 247.2" height="247.2" width="395.52"><g transform="matrix(1,0,0,1,136.56149554896143,47.215199999999996)"><svg viewBox="0 0 122.39700890207715 152.7696" height="152.7696" width="122.39700890207715"><g><svg viewBox="0 0 122.39700890207715 152.7696" height="152.7696" width="122.39700890207715"><g><svg viewBox="0 0 122.39700890207715 152.7696" height="152.7696" width="122.39700890207715"><g><svg viewBox="0 0 122.39700890207715 152.7696" height="152.7696" width="122.39700890207715"><g id="textblocktransform"><svg viewBox="0 0 122.39700890207715 152.7696" height="152.7696" width="122.39700890207715" id="textblock"><g><svg viewBox="0 0 122.39700890207715 152.7696" height="152.7696" width="122.39700890207715"><g transform="matrix(1,0,0,1,0,0)"><svg width="122.39700890207715" viewBox="3.8499999046325684 -33.70000076293945 27 33.70000076293945" height="152.7696" data-palette-color="#ee3e38"><path d="M14.05 0L14.05 0 3.85 0 3.85-33.7 13.85-33.7Q21.3-33.7 26.08-29.08 30.85-24.45 30.85-17.1L30.85-17.1Q30.85-9.8 26.43-4.9 22 0 14.05 0ZM13.8-30.1L13.8-30.1 7.95-30.1 7.95-3.55 14-3.55Q20.25-3.55 23.45-7.43 26.65-11.3 26.65-17.1L26.65-17.1Q26.65-22.6 23.08-26.35 19.5-30.1 13.8-30.1Z" opacity="1" transform="matrix(1,0,0,1,0,0)" fill="#ee3e38" class="undefined-text-0" data-fill-palette-color="primary" id="text-0"></path></svg></g></svg></g></svg></g></svg></g></svg></g></svg></g></svg></g><path d="M76.657 41.215L76.657 0 323.857 0 323.857 247.2 76.657 247.2 76.657 205.985 90.434 205.985 90.434 233.423 310.08 233.423 310.08 13.777 90.434 13.777 90.434 41.215Z" fill="#ee3e38" stroke="transparent" data-fill-palette-color="primary"></path></svg></g><defs></defs></svg><rect width="395.52" height="247.2" fill="none" stroke="none" visibility="hidden"></rect></g></svg></g></svg>