<svg xmlns="http://www.w3.org/2000/svg" version="1.1" xmlns:xlink="http://www.w3.org/1999/xlink" xmlns:svgjs="http://svgjs.dev/svgjs" width="1000" height="287" viewBox="0 0 1000 287"><g transform="matrix(1,0,0,1,-0.6056348047761162,-0.3462969762913417)"><svg viewBox="0 0 396 114" data-background-color="#ffffff" preserveAspectRatio="xMidYMid meet" height="287" width="1000" xmlns="http://www.w3.org/2000/svg" xmlns:xlink="http://www.w3.org/1999/xlink"><g id="tight-bounds" transform="matrix(1,0,0,1,0.24008861730862918,0.13775134626894214)"><svg viewBox="0 0 395.52 113.72457348021214" height="113.72457348021214" width="395.52"><g><svg viewBox="0 0 395.52 113.72457348021214" height="113.72457348021214" width="395.52"><g><svg viewBox="0 0 395.52 113.72457348021214" height="113.72457348021214" width="395.52"><g id="textblocktransform"><svg viewBox="0 0 395.52 113.72457348021214" height="113.72457348021214" width="395.52" id="textblock"><g><svg viewBox="0 0 395.52 113.72457348021214" height="113.72457348021214" width="395.52"><path d="M394.594 24.392C392.735 12.587 387.435 9.306 387.435 9.306 371.165-2.853 350.86-0.233 332.619 1.514 300.414 1.585 268.339 4.182 236.208 5.575 168.767 5.788 100.749 2.294 33.643 10.911 27.339 13.555-6.54 11.43 1.121 25.903 3.129 31.923 10.456 38.604 10.232 44.129 11.236 45.097 12.631 42.878 13.226 44.271 15.309 48.024 18.711 46.254 21.501 48.473 17.614 54.399 20.403 59.333 23.062 64.504 18.377 65.849 12.371 65.212 9.675 69.674 9.396 72.909 7.89 72.295 6.235 72.153 5.026 72.059 2.59 72.413 2.999 73.428 4.394 76.898-1.594 78.905 2.162 82.305-0.422 85.988 3.948 89.175 3.353 93.165 3.278 93.968 3.687 94.653 4.338 94.841 7.22 95.857 3.018 97.84 3.464 99.988 33.029 114.673 65.104 104.521 95.394 111.273 103.259 106.552 97.346 112.95 100.489 111.958 102.943 110.801 104.728 115.594 107.499 112.879 107.927 112.1 107.276 110.258 108.8 110.612 109.6 110.801 110.307 110.754 110.418 109.668 110.586 108.039 109.117 109.054 108.726 108.204 112.947 103.907 111.906 114.13 115.866 113.705 115.68 112.454 114.528 110.66 116.889 110.896 119.232 109.101 119.306 107.614 121.389 111.651 121.463 112.525 121.835 113.139 122.43 113.563 128.938 109.172 135.409 115.122 142.233 113.139 146.417 110.966 150.433 114.319 154.672 113.493 156.16 112.832 157.666 111.651 159.098 113.634 176.632 114.059 195.319 112.289 211.943 113.705 256.364 111.061 303.835 114.791 350.674 111.297 361.719 109.951 373.192 108.039 383.958 106.504 383.958 106.504 392.679 102.302 392.679 83.415S394.538 66.888 394.817 51.849C395.096 36.81 396.398 36.196 394.538 24.392Z" opacity="1" fill="#ff0000" data-fill-palette-color="tertiary"></path><g transform="matrix(1,0,0,1,55.76832,26.230666666666668)"><svg width="283.98335999999995" viewBox="3.200000047683716 -35.25 163.38999938964844 35.25" height="61.26324014687881" data-palette-color="#ffffff"><path d="M3.2 0L3.2-35.25 17.55-35.25Q23.4-35.25 27.63-33.15 31.85-31.05 34.1-27.08 36.35-23.1 36.35-17.65L36.35-17.65Q36.35-12.15 34.13-8.18 31.9-4.2 27.68-2.1 23.45 0 17.55 0L17.55 0 3.2 0ZM12.4-7.4L16.9-7.4Q22.1-7.4 24.65-9.95 27.2-12.5 27.2-17.65L27.2-17.65Q27.2-22.8 24.65-25.33 22.1-27.85 16.9-27.85L16.9-27.85 12.4-27.85 12.4-7.4ZM76.75 0L67.65 0 64.5-7.3 48.9-7.3 45.75 0 36.5 0 52.95-35.25 60.25-35.25 76.75 0ZM56.7-25.5L51.85-14.2 61.55-14.2 56.7-25.5ZM101.7-15.1L101.7-35.25 110.3-35.25 110.3 0 103.5 0 87.4-20.15 87.4 0 78.85 0 78.85-35.25 85.55-35.25 101.7-15.1ZM125.89 0L116.69 0 116.69-35.25 125.89-35.25 125.89 0ZM150.49-18.5L166.59 0 155.69 0 141.49-15.95 141.49 0 132.29 0 132.29-35.25 141.49-35.25 141.49-20.1 155.29-35.25 166.04-35.25 150.49-18.5Z" opacity="1" transform="matrix(1,0,0,1,0,0)" fill="#ffffff" class="undefined-text-0" data-fill-palette-color="quaternary" id="text-0"></path></svg></g></svg></g></svg></g></svg></g><g></g></svg></g><defs></defs></svg><rect width="395.52" height="113.72457348021214" fill="none" stroke="none" visibility="hidden"></rect></g></svg></g></svg>